<svg width="34" height="43" viewBox="0 0 34 43" fill="none" xmlns="http://www.w3.org/2000/svg">
<path fill-rule="evenodd" clip-rule="evenodd" d="M6.03638 2.76044C7.92693 1.15034 10.5123 0.219855 13.2239 0.173773H13.2254C14.5681 0.151068 15.9012 0.346258 17.1487 0.748053C18.3962 1.14985 19.5337 1.75043 20.4963 2.51557C21.4588 3.28065 22.2275 4.19526 22.7584 5.20716C23.2894 6.21906 23.5722 7.30848 23.5908 8.41315C23.6155 9.86811 22.7066 12.5637 21.4462 15.5803L25.8466 16.3655C26.2864 16.444 26.7469 16.51 27.2164 16.5772C28.9908 16.8311 30.8946 17.1036 32.3012 18.1434C34.1578 19.5159 34.1596 21.8515 32.8468 23.576C31.9442 24.7617 30.6833 25.7539 29.476 26.7039C29.1338 26.9732 28.7959 27.2391 28.4717 27.5051C21.894 32.9009 14.7422 37.6132 7.35312 41.8173C6.33547 42.3963 5.07001 41.9847 4.6796 40.8379C1.75834 32.2571 0.378697 23.165 0.647297 14.1166C0.673985 13.2174 1.33779 12.2108 2.35219 12.2565L2.6736 12.271C2.7135 12.2728 2.75319 12.2756 2.79265 12.2794C2.90062 12.2805 3.01267 12.291 3.12877 12.3117L4.20581 12.5039C3.56113 10.9489 3.15787 9.63532 3.14298 8.75941C3.10506 6.52845 4.14585 4.37055 6.03638 2.76044ZM13.6511 14.1893L10.8707 13.6932C10.7355 13.6347 10.6031 13.5714 10.4739 13.5031C9.58486 13.0339 8.88666 12.3573 8.46758 11.559C8.04851 10.7606 7.92737 9.87635 8.11951 9.01801C8.31165 8.15961 8.80843 7.36573 9.54702 6.7367C10.2856 6.10767 11.2328 5.67176 12.2689 5.48401C13.305 5.29633 14.3834 5.3653 15.3678 5.6822C16.3522 5.99915 17.1983 6.54975 17.7991 7.26441C18.4 7.97913 18.7286 8.82581 18.7434 9.69739C18.7633 10.8662 18.218 11.9966 17.2276 12.8402C16.2812 13.6462 15.0023 14.1271 13.6511 14.1893ZM6.07349 16.4675L4.18393 16.1303C4.18029 23.4265 5.25847 30.671 7.4003 37.654C10.4741 35.8514 13.4924 33.9544 16.4455 31.9599C19.6971 29.7639 22.8734 27.4518 25.9249 24.9841C26.1882 24.7712 26.457 24.5585 26.7276 24.3443C27.8287 23.4727 28.9608 22.5767 29.8805 21.5449C29.9973 21.4138 30.0953 21.248 30.1723 21.1178C30.1954 21.0786 30.2167 21.0427 30.2359 21.012C30.2122 20.9975 30.181 20.9807 30.1407 20.9616C29.4637 20.6397 28.7573 20.5143 28.027 20.3848L27.8917 20.3608L19.9636 18.9461C17.3295 24.6743 14.2254 30.3604 14.2254 30.3604C14.2254 30.3604 9.35697 22.8585 6.07349 16.4675ZM30.2888 21.0836C30.2658 21.0827 30.2257 21.0582 30.2388 21.0137C30.3176 21.0624 30.3116 21.0845 30.2888 21.0836Z" fill="#2FCB68"/>
</svg>
