<svg width="72" height="85" viewBox="0 0 72 85" fill="none" xmlns="http://www.w3.org/2000/svg">
<g filter="url(#filter0_f_2_59)">
<path fill-rule="evenodd" clip-rule="evenodd" d="M63.1652 23.288L56.2295 16.7029C56.1379 17.0462 55.9707 17.3675 55.7184 17.6378L48.9482 24.8901L56.8269 32.5L62.4266 26.4867C63.1288 25.7326 64.1812 25.5788 64.9357 26.3896C65.605 27.1088 65.749 28.5521 65.0485 29.3043L59.5886 35.1675L66.3354 41.6841C67.3095 42.6249 67.5872 44.0943 66.6709 45.2036C65.8582 46.1877 64.1231 46.4777 63.1513 45.5392L56.1908 38.8161L51.8325 43.4962L52.7838 51.905L56.9172 47.2651C58.2423 45.7776 61.9373 49.1462 60.6152 50.6304L34.3838 80.0765C33.0586 81.564 29.3636 78.1955 30.6858 76.7112L37.4268 69.1441C37.414 69.1334 37.4014 69.1224 37.389 69.1112L37.3797 69.1027L37.3664 69.0904L24.4199 56.9036C24.4481 57.3243 24.3222 57.7535 24.0055 58.127C23.4001 58.8408 22.1111 59.0539 21.3912 58.3763L7.6611 45.4519C6.93939 44.7726 6.73584 43.7094 7.41824 42.9047C7.56341 42.7335 7.74792 42.5912 7.95446 42.4829C7.9996 42.3785 8.0621 42.2796 8.1438 42.1879L34.3752 12.7418C35.7003 11.2543 39.3954 14.6228 38.0732 16.107L27.3079 28.1916C27.9218 28.2193 28.5183 28.4407 28.9768 28.8959L33.5383 33.424L51.4511 14.2357C51.8164 13.8444 52.259 13.5515 52.7333 13.3835L47.7047 8.60914C46.8921 7.83759 46.6702 6.63691 47.4508 5.7342C48.1432 4.93345 49.6068 4.70255 50.4174 5.47221L65.8779 20.151C66.6905 20.9226 66.9124 22.1233 66.1318 23.026C65.4394 23.8267 63.9758 24.0576 63.1652 23.288ZM47.5183 47.3018L45.5328 29.7521C45.4862 29.3402 45.5289 28.9597 45.6547 28.6394L45.546 28.5345L37.4015 37.259L47.5183 47.3018ZM50.7034 33.5159L51.2643 38.4733L53.4291 36.1486L50.7034 33.5159ZM22.5175 54.4078C22.5807 54.1704 22.6887 53.9526 22.8463 53.777L26.6603 49.5293L17.5188 40.6997C17.2639 40.4534 17.0566 40.171 16.906 39.8683L12.4206 44.9034L22.5175 54.4078ZM26.9528 54.2593L39.7378 66.294C39.7577 66.3127 39.7773 66.3318 39.7964 66.3511C39.8173 66.3722 39.8377 66.3937 39.8576 66.4154L48.7075 56.4809C48.276 56.3814 47.871 56.1743 47.5386 55.8443L35.9019 44.2926L32.424 48.1659L39.2351 54.7446C40.2092 55.6855 40.4869 57.1548 39.5707 58.2641C38.7579 59.2482 37.0228 59.5382 36.0511 58.5997L29.0914 51.8774L26.9528 54.2593ZM29.9929 45.8177L33.5017 41.91L25.2096 33.6785C24.6588 33.1318 24.2902 32.4405 24.1661 31.7185L19.9907 36.4056C20.252 36.4992 20.4949 36.6437 20.7028 36.8446L29.9929 45.8177Z" fill="#C5CDBD"/>
</g>
<path fill-rule="evenodd" clip-rule="evenodd" d="M56.1652 18.288L49.2294 11.7029C49.1379 12.0462 48.9707 12.3675 48.7184 12.6378L41.9482 19.8901L49.8269 27.5L55.4266 21.4867C56.1288 20.7326 57.1812 20.5788 57.9357 21.3896C58.605 22.1088 58.749 23.5521 58.0485 24.3043L52.5886 30.1674L59.3354 36.6841C60.3095 37.6249 60.5872 39.0943 59.6709 40.2036C58.8581 41.1877 57.1231 41.4777 56.1513 40.5392L49.1908 33.8161L44.8325 38.4962L45.7838 46.905L49.9172 42.2651C51.2423 40.7776 54.9373 44.1461 53.6152 45.6304L27.3837 75.0765C26.0586 76.564 22.3636 73.1955 23.6857 71.7112L30.4268 64.1441C30.4062 64.1268 30.3861 64.109 30.3664 64.0904L17.4198 51.9036C17.4481 52.3243 17.3222 52.7535 17.0054 53.127C16.4001 53.8408 15.1111 54.0539 14.3912 53.3763L0.661086 40.4519C-0.0606082 39.7726 -0.264166 38.7094 0.418244 37.9047C0.563418 37.7335 0.747909 37.5911 0.954446 37.4829C0.999573 37.3785 1.0621 37.2796 1.14378 37.1879L27.3752 7.74179C28.7003 6.25427 32.3954 9.6228 31.0732 11.107L20.3079 23.1916C20.9218 23.2193 21.5183 23.4407 21.9768 23.8958L26.5383 28.424L44.4511 9.23567C44.8163 8.84441 45.2589 8.55149 45.7332 8.38346L40.7047 3.60915C39.892 2.83759 39.6702 1.63689 40.4508 0.734202C41.1432 -0.0665436 42.6068 -0.297453 43.4174 0.472205L58.8779 15.151C59.6905 15.9226 59.9124 17.1233 59.1318 18.026C58.4393 18.8267 56.9758 19.0576 56.1652 18.288ZM40.5183 42.3018L38.5328 24.752C38.4862 24.3402 38.5289 23.9597 38.6547 23.6394L38.546 23.5345L30.4015 32.259L40.5183 42.3018ZM43.7034 28.5159L44.2643 33.4733L46.4291 31.1486L43.7034 28.5159ZM15.5175 49.4078C15.5807 49.1703 15.6887 48.9525 15.8463 48.7769L19.6603 44.5293L10.5188 35.6997C10.2639 35.4534 10.0566 35.171 9.90602 34.8683L5.42058 39.9034L15.5175 49.4078ZM19.9528 49.2592L32.7378 61.294C32.7795 61.3332 32.8194 61.3737 32.8576 61.4154L41.7075 51.4809C41.276 51.3814 40.871 51.1743 40.5386 50.8443L28.9018 39.2926L25.424 43.1659L32.2351 49.7446C33.2092 50.6855 33.4869 52.1548 32.5707 53.2641C31.7579 54.2482 30.0228 54.5382 29.0511 53.5997L22.0914 46.8775L19.9528 49.2592ZM22.9929 40.8177L26.5017 36.91L18.2096 28.6785C17.6588 28.1317 17.2901 27.4405 17.1661 26.7185L12.9907 31.4056C13.252 31.4991 13.4949 31.6437 13.7029 31.8446L22.9929 40.8177Z" fill="#A1E262"/>
<defs>
<filter id="filter0_f_2_59" x="3" y="1" width="68.2304" height="83.4474" filterUnits="userSpaceOnUse" color-interpolation-filters="sRGB">
<feFlood flood-opacity="0" result="BackgroundImageFix"/>
<feBlend mode="normal" in="SourceGraphic" in2="BackgroundImageFix" result="shape"/>
<feGaussianBlur stdDeviation="2" result="effect1_foregroundBlur_2_59"/>
</filter>
</defs>
</svg>
