<svg xmlns="http://www.w3.org/2000/svg" width="35.6645" height="46.77594" viewBox="0 0 35.6645 46.77594" creator="Katerina Limpitsouni"><path d="M1.54617,30.94609C9.73828,22.06639,17.93038,13.1867,26.12248,4.307c.89526-.9704,1.87004-2.2222,3.17259-2.6471,1.49432-.48745,2.29202,.71214,2.64078,1.97119,.68583,2.47584,.83838,5.19037,1.11513,7.73687,.59436,5.46904,.91211,10.96735,1.03691,16.4664,.13766,6.06559,.0344,12.13571-.29072,18.19394l.94938-.72321c-12.02207-2.9967-23.40917-8.13921-33.61148-15.16887l.26906,1.02614,.25931-.36806c.5571-.79076-.74291-1.54102-1.29521-.75708l-.25931,.36806c-.24553,.3485-.04141,.81222,.26906,1.02614,10.29973,7.09678,21.83346,12.29489,33.9698,15.32008,.49192,.12262,.92299-.23151,.94938-.72321,.63865-11.90054,.50228-23.90636-.86869-35.75323-.35226-3.04396-.46109-12.16715-5.88028-9.92405-1.04006,.4305-1.91004,1.21973-2.67831,2.02291-1.18858,1.24258-2.33538,2.52792-3.50137,3.79177l-6.73324,7.29838C10.58537,18.93786,5.53544,24.41165,.48551,29.88543c-.65375,.70862,.40439,1.77202,1.06066,1.06066Z" fill="#2fcb68" origin="undraw"/></svg>